<?xml version="1.0" encoding="utf-8"?>
<!-- Generator: Adobe Illustrator 19.0.0, SVG Export Plug-In . SVG Version: 6.00 Build 0)  -->
<svg version="1.1" id="heroImg" xmlns="http://www.w3.org/2000/svg" xmlns:xlink="http://www.w3.org/1999/xlink" x="0px" y="0px"
	 viewBox="0 0 1280 720" style="enable-background:new 0 0 1280 720;" xml:space="preserve">
<g id="bgClip">
	<defs>
		<rect id="XMLID_16_" width="1280" height="720"/>
	</defs>
	<clipPath id="XMLID_15_">
		<use xlink:href="#XMLID_16_"  style="overflow:visible;"/>
	</clipPath>
	<g style="clip-path:url(#XMLID_15_);">
		
			<image style="overflow:visible;" width="1620" height="1080" id="bg" xlink:href="mainmenu_bg.png"  transform="matrix(0.9069 0 0 0.9069 -94.6036 -90.4051)">
		</image>
	</g>
</g>
<image style="overflow:visible;" width="1920" height="614" id="fg" xlink:href="fg.png"  transform="matrix(0.5255 0 0 0.5122 135.5346 405.4239)">
</image>
<path id="border" d="M-5.2,732.1c0-295.4,0-447.1,0-742.5c295.4,0,995,0,1290.4,0c0,295.4,0,447.1,0,742.5
	C989.8,732.1,290.2,732.1-5.2,732.1z M151.7,620.3c-0.1,7.1-0.1,14.2-0.1,21.9c8.9-0.3,16.2,5,23.9,8.9c1.1,0.6,2.3,1.1,3.5,1.4
	c6.6,1.4,10.7,6.6,13.1,14.7c0.5,1.5,1,3,1.6,4.4c1.8,4,4.5,6.1,7.9,5.7c6.6-0.8,12.1,1.8,17.1,7.4c4.6,5.2,10.2,7.4,16.2,6.8
	c1.1-0.1,2.3-1,3.2-1.8c3-2.8,5.8-6.1,8.9-8.5c2.9-2.2,6.3-3.2,9.1-5.5c5-4.3,10.4-5.1,16.2-5.1c19.8,0.1,39.5,0.3,59.3,0
	c8.4-0.1,16.9-1.8,25.3-2.3c7.8-0.5,15.7-0.4,23.5-0.5c1.8,0,3.1-0.3,3.4-3.1c0.1-0.8,0.7-1.8,1.2-2c3-1.4,6-2.7,9.1-3.7
	c0.7-0.2,2,0.6,2.3,1.3c1.7,5,4.6,6.3,8.4,6.1c3.4-0.1,6.9-1.1,10,1.7c0.3,0.3,1,0.1,1.5-0.1c7.3-2.3,14.7-2.2,22.1-1.3
	c8.4,1,16.8,2.5,25.3,3c9.5,0.6,19,0.4,28.6,0.6c0.9,0,1.7,0.1,2.6,0.2c0,0.3,0.1,0.7,0.1,1c-3.3,2.2-6.7,4.4-10,6.6
	c0.2,2.5,0.9,3.5,2.6,2.4c1.1-0.7,2.2-1.4,3.3-2.1c1.1-0.8,2.2-1.6,3.3-2.4c0.6,1.5,1.2,3,1.7,4.6c0.3,1.2,0.4,2.5,0.7,3.8
	c0.7,2.9,2.1,5.1,4.4,6.1c1.5,0.7,2.5,0.4,3-1.8c0.6-2.3,1.3-4.7,2.2-6.8c1.5-3.3,4.8-3.2,6.8-0.5c0.9,1.2,2.8,2,4.1,1.7
	c3.4-0.8,6.5,0.4,9.8,1.8c-1.4,2.2-2.6,4-3.7,5.8c0.1,0.3,0.2,0.5,0.4,0.8c9.5-3.6,19.8-4.8,27.1-15.5c3.5-5.1,12.4-7.4,15.8-3.4
	c-3,0.4-5.9,0.7-8.8,1.2c-0.4,0.1-0.8,0.9-1.2,1.4c0.4,0.5,0.7,1.4,1.1,1.5c8,1.3,16,4.3,24,0.4c1.8-0.9,4.1-1.2,5.9-0.5
	c13,5.3,26,5.2,39.2,1.2c0.9-0.3,2,0,3.6,0c-1.9,2.9-3.2,5-4.6,7.1c0.1,0.3,0.1,0.6,0.2,0.8c10.8-5.1,21.8-7.6,33.4-4
	c-1.1,0.8-1.9,1.4-2.8,2c-0.8,0.6-1.6,1.2-2.7,2c11.7,3.6,23.1,7.7,34.4-0.1c0.2-0.1,0.3-0.2,0.5-0.2c2.4-0.3,4.8-1.2,7.2-0.9
	c19.1,2.6,38.1,4.6,57.3,3.7c19.3-0.8,38.6-2.1,57.9-3.5c13.3-0.9,26.5-2.7,39.8-3.4c12.9-0.7,25.9-0.5,38.9-0.7
	c14.6-0.3,29.3-0.6,43.9-0.9c2.6,0,4.9,1.2,7.1,3.3c5.2,5.1,10.6,10,15.9,14.9c0.3-0.2,0.5-0.3,0.8-0.5c-0.4-1.5-0.7-2.9-1.1-4.4
	c-0.4-1.6-0.7-3.1-1.1-4.7c1.2,0.5,2.4,1,3.7,1.5c1,0.4,2.3,1.5,3.1,1.1c6.3-3,12.6-6.4,17.3-13c5-7.1,10.6-10.7,18-7.8
	c0.5,0.2,1,0.2,1.6,0.3c14.2,1.6,28.5,3.1,42.7,4.9c7.4,0.9,13.4-4.1,19.7-7.7c0.7-0.4,1.2-1.6,1.7-2.6c2.7-5.2,5.5-10.4,8-15.8
	c1.2-2.5,2.3-3,4.2-1.8c2.1,1.2,4.4,2.9,6.5,0.6c2.9-3.1,6-2.5,9.3-1.8c5.3,1.2,10.1-0.5,14.8-4.1c-1.2-2-2.3-3.8-3.5-5.5
	c-0.9-1.3-1-2.3-0.2-3.9c1.6-3.2,2.9-6.5,4.5-10c-1.8-1-3.3-1.9-5-2.9c3.2-3.4,6-6.6,8.9-9.6l2.8-23.3c1.5-5-0.4-9.5-4.2-11.3
	c-0.8-0.4-1.6-0.9-2.5-1.3c-1.9-0.9-2.4-2.6-1.6-5c1.1-3.1,2.1-6.1,3.2-9.5c-4.1-0.7-8.1-1.3-12-1.9c0-0.4-0.1-0.7-0.1-1.1
	c2.7-1.2,5.3-2.9,8.1-3.5c3.6-0.8,7.4-0.6,11.1-0.8c3.7-0.2,5.9-1.9,6.5-6.1c1.1-7,1.9-14,2.9-21.4c-4.5,0-9,0-13.4,0
	c0.4-0.8,0.8-1.1,1.3-1.3c5.6-3,6.2-8.4,1.5-13.5c-2-2.1-4.2-3.9-6.2-6c-0.8-0.9-1.6-2.2-2-3.5c-1.3-4.9-2.3-9.8-3.6-14.7
	c-0.5-1.9-0.1-2.8,1-3.7c2.7-2.4,5.4-4.8,8.1-7.2c5-4.4,9.9-8.9,14.7-13.2c-2.3-6.4-4.7-12.4-6.7-18.7c-3.4-10.9-7.5-14.7-16.4-14.6
	c-4,0.1-8,0-12.8,0c3.1-4,3.4-7.8,1.7-12.1c-0.6-1.5-0.2-3.7-0.2-5.6c0.1-2.9,0.3-5.9,0.4-8.8c0.1-2.8-0.4-6,0.5-8.2
	c0.9-2.2,3.2-3.3,4.8-4.8c-3.3-1.5-6.8-3.2-10.4-4.9c0-0.4,0-0.8,0-1.1c1.4-0.6,2.9-1.8,4.3-1.8c10.9,0.3,21.7,1.1,31.6,8.1
	c2.4,1.7,5.2,2.5,7.9,0.7c3.8-2.5,7.6-5.3,11.5-8c-1-3.7-1.9-7-2.7-10.3c4.2-0.9,4.2-0.9,2.3-5.5c-0.3-0.7-0.4-1.5-0.6-2.2
	c1.1-0.7,2-1.3,2.9-2c-0.9-3.2-2-6.1-2.5-9.1c-1.4-8-4.8-13.3-10.6-16.3c-3.6-1.9-6.9-4.9-10.7-7.7c0.9-1,1.5-2.1,2.1-2.2
	c4.4-0.9,4.8-5.2,4.8-9.8c0-8.5,0.4-16.9,2.6-25c1.4-5.3,3.4-10.4,5.2-15.7c-1.7-0.5-3.5-1.1-5.6-1.8c3.6-3.4,8.2-4.4,8.7-11.2
	c-0.2-0.2-0.5-0.4-0.8-0.7c-3.1-3.1-6.8-1.9-10.2-2.4c-6.8-1-9.8-5.2-10.2-14.4c-0.1-2.1,0.5-3.2,1.9-4c3.1-1.9,6.2-3.9,9.3-6
	c-4.5-12.5-5.6-25.1-3.6-38.4c0.2-1.6,0.1-3.8-0.5-5c-2.1-3.9-4.5-7.6-6.9-11.1c-2.5-3.5-5.7-4.8-9.4-4.2c-1.5,0.2-3.2-0.6-4.7-0.9
	c0-0.3,0-0.6-0.1-0.9c6.3-2.9,9.8-9.1,11.3-17.3c0.7-3.9,1.3-7.8,1.7-11.7c0.9-7.4,1.6-14.8,2.4-22.5c4.7,0,9.2,0,14.3,0
	c-2.3-2.3-4-4-6.2-6.1c2.3-1.1,4.1-1.9,6-3c0.6-0.3,1.4-1.3,1.5-2c0.1-7.1,0.1-14.3,0.1-22c-8.7,0.4-16-4.8-23.7-8.7
	c-1.3-0.7-2.7-1.3-4-1.6c-6.2-1.4-10.3-6.2-12.6-13.9c-0.5-1.7-1.2-3.4-1.9-5c-1.8-4-4.5-6.2-7.9-5.8c-6.7,0.8-12.2-1.9-17.3-7.6
	c-4.6-5.2-10.1-7.2-16-6.6c-1.1,0.1-2.3,1-3.2,1.8c-3,2.8-5.8,6-8.9,8.5c-2.7,2.1-6,2.9-8.6,5.2c-5.5,4.8-11.5,5.4-17.7,5.4
	c-20.8,0-41.6-0.2-62.4,0.2c-7.6,0.1-15.3,1.7-22.9,2.2c-7,0.4-13.9,0.4-20.9,0.5c-2.1,0-4.2-0.2-4.3,3.7c0,0.4-0.5,1.1-0.8,1.2
	c-3.2,1.3-6.4,2.7-9.6,3.8c-0.6,0.2-1.7-0.4-1.9-1.1c-1.8-6-5.5-6.7-9.6-6.3c-3,0.2-6,0.8-8.7-1.7c-0.4-0.4-1.2-0.2-1.8,0
	c-7.1,2.2-14.3,2.3-21.6,1.4c-18.1-2.3-36.2-4.6-54.4-3.6c-0.8,0-1.7-0.1-2.5-0.2c-0.1-0.3-0.2-0.7-0.3-1c3.4-2.2,6.7-4.5,10-6.7
	c-0.2-2.6-1.1-3.4-2.7-2.4c-1,0.6-2.1,1.2-3.1,1.9c-1.2,0.8-2.4,1.7-3.5,2.5c-0.6-1.6-1.2-3.3-1.6-5c-0.4-1.3-0.3-3-0.9-4
	c-1.1-2-2.5-3.8-4-5.2c-1.3-1.2-2.6-0.7-3.2,1.8c-0.5,2.2-1.2,4.4-2.1,6.4c-1.6,3.6-4.8,3.5-6.9,0.6c-0.9-1.2-2.5-1.6-3.9-1.7
	c-3.2-0.4-6.5-0.5-9.7-0.7c0-0.4-0.1-0.8-0.1-1.2c1.2-1.9,2.3-3.7,3.5-5.6c-10.1,2.7-20.3,4.2-27.7,15c-3.2,4.7-11.9,7-15.5,3.1
	c3-0.4,5.8-0.7,8.6-1.2c0.5-0.1,0.9-0.8,1.3-1.2c-0.3-0.6-0.6-1.6-1-1.7c-7.6-1.1-15.1-4.2-22.8-1c-2.3,1-5.1,1.9-7.2,1
	c-13.3-5.4-26.6-5.2-40-1.1c-0.7,0.2-1.6-0.2-2.7-0.4c1.6-2.6,3-4.7,4.3-6.8c-11,4.5-22,6.7-33.6,3.4c1.8-1.4,3.5-2.6,5.7-4.3
	c-5.9-1.4-11.2-2.4-16.4-3.9c-3.4-1-6.5-0.8-9.8,0.7c-5.2,2.5-10.4,4.4-16.2,3.5c-18.5-3-37.1-4.7-55.7-4
	c-19.7,0.8-39.5,2.1-59.2,3.5c-13.9,0.9-27.8,2.6-41.7,3.4c-12.1,0.7-24.2,0.5-36.2,0.7c-15.1,0.3-30.1,0.7-45.2,0.8
	c-2.2,0-4.6-1.5-6.5-3.1c-5.5-4.8-10.8-9.9-16.2-15c-0.3,0.2-0.5,0.4-0.8,0.6c0.4,1.6,0.9,3.1,1.2,4.7c0.3,1.4,0.6,2.9,0.9,4.4
	c-1.1-0.4-2.3-0.5-3.2-1.3c-1.9-1.9-3.7-1.9-5.6-0.6c-5.9,3.8-12,7.1-16.6,14c-3.4,5.1-7.9,7.8-13.2,7c-3.1-0.5-6.1-1.2-9.2-1.6
	c-13.6-1.6-27.2-3.6-40.9-4.4c-6.4-0.4-12.1,4.2-17.7,8.1c-0.6,0.4-1,1.6-1.5,2.4c-2.6,5.1-5.4,10.2-7.8,15.5
	c-1.2,2.5-2.2,2.8-4.2,1.9c-2-0.8-4.8-1.9-6.2-0.7c-3.4,3.1-6.8,2.4-10.3,1.6c-5.1-1.1-9.5,1-14,4.2c1.6,2.6,3.1,5,4.6,7.4
	c-1.8,4.1-3.5,8-5.3,12.1c1.7,1,3.2,1.9,5,2.9c-3.3,3.6-6.3,7-9.4,10.2c-3.9,4-6.6,9.1-8.2,15.2c-2.9,11.2-5.7,22.4-8.5,33.7
	c-0.4,1.4-0.6,2.9-0.8,4.4c-1,8.9,2.1,13.1,8.9,12.2c1.6-0.2,3.2,0,5,0c-2.4,11.4,3.7,13.3,9.5,16c-1.9,3.6-3.5,6.6-5,9.8
	c-1.2,2.7-2.6,5.4-3.3,8.3c-1.1,4.7,0.9,8.9,4.4,10.6c5,2.3,5.2,3.2,2.9,9.6c-0.7,1.9-1.4,3.9-2.3,6.1c4.3,0.7,8.2,1.3,12.1,1.9
	c0.1,0.4,0.1,0.8,0.2,1.2c-3.1,1.3-6.2,3-9.4,3.7c-3.5,0.7-7,0.5-10.5,0.7c-2.7,0.2-5,1.6-5.6,5.2c-1.2,7.3-2.1,14.6-3.2,22.4
	c4.7,0,9.1,0,13.5,0c-0.8,0.9-1.6,1.3-2.4,1.8c-3.9,2.4-4.6,6.8-1.7,11.1c0.6,0.9,1.2,1.9,2,2.3c6.3,3.9,8.9,11.1,10.2,19.5
	c0.2,1.4,0.5,2.8,1,4c0.7,1.9,0.1,2.9-1.1,4c-6.5,5.7-12.9,11.5-19.3,17.3c-1.2,1.1-2.4,2.2-3.3,3.1c2.6,7.5,5.1,14.6,7.6,21.7
	c2.7,7.9,7.3,11.7,13.8,11.6c2.7,0,5.5-0.1,8.2-0.1c1.8,0,3.6,0,6.3,0c-3.3,4.1-3.6,7.8-1.8,12c0.4,1,0.3,2.5,0.3,3.8
	c0,5.2-0.1,10.3-0.2,15.4c-0.1,3.6-1.2,6-3.9,7c-0.7,0.2-1.3,0.6-2.4,1c4,1.8,7.5,3.5,11.1,5.1c0,0.4,0.1,0.9,0.1,1.3
	c-1.7,0.6-3.5,1.7-5.2,1.6c-8.9-0.3-18.1,0.1-26.1-5.6c-7.4-5.2-13.7-4.4-20.1,2c-1.2,1.2-2.5,2.1-3.9,3.1c0.9,3.5,1.8,6.7,2.5,9.2
	c-1.4,1.3-3.2,2.3-3.2,3.2c0,1.7,1.2,3.4,1.9,5.2c-1.2,0.8-2.1,1.4-3.1,2.1c1.6,5.5,3.2,10.8,4.6,16.3c0.7,2.6,1.8,4.3,3.6,5.6
	c5.1,3.5,10.2,7.4,15.9,11.6c-1.5,1.1-2.4,1.9-3.3,2.3c-2,0.8-3.2,2.5-3.5,5.2c-0.2,2-0.3,4-0.3,6c0.1,13.5-2,26.3-7.6,37.9
	c-0.2,0.3-0.2,0.8-0.3,1.3c1.9,0.6,3.7,1.1,5.8,1.8c-3.6,3.4-8.2,4.4-8.7,11.1c2.7,3.5,6.2,2.9,9.6,3.1c7.7,0.4,11.1,4.8,11.5,14.5
	c0.1,2.1-0.3,3.2-1.8,4c-3.1,1.8-6.1,3.9-9.4,6L151.7,620.3z"/>
<image style="overflow:visible;" width="432" height="432" id="character" xlink:href="icon_fg.png"  transform="matrix(1 0 0 1 410.3333 135)">
</image>
</svg>
